<?xml version='1.0' encoding='utf-8'?>
<svg xmlns="http://www.w3.org/2000/svg" width="1618px" height="1e3px" version="1.1" viewBox="-350 195 1618 1e3"> <g fill="#a1e4ff" stroke-linejoin="miter"> <path d="m-350 193.89c-0.2939 0-0.57575 0.11676-0.78358 0.32457-0.20782 0.20781-0.32455 0.48968-0.32455 0.78358l0.00101 1e3c0 0.612 0.49612 1.1082 1.1081 1.1082l1618 9e-4c0.2939 0 0.5758-0.1168 0.7835-0.3246 0.2078-0.2077 0.3246-0.4896 0.3246-0.7835l-9e-4 -1e3c0-0.612-0.4962-1.1081-1.1082-1.1081l-1618-0.00101z"/> </g> <g stroke-linejoin="miter"> <g fill="#c09661" fill-opacity=".72941"> <path d="m1200.5 1036.7-6.527 3.6415q-10.282 2.3935-29.345 4.4888l-21.258 2.0207q-23.454 1.9463-55.688 3.5943-98.772 5.0131-268.3 7.0659-108.19 1.2388-232.19 0.7659-158.46-0.9656-194.89-1.6723-194.49-2.8889-337.03-8.3499-148.19-5.7273-221.83-12.962-79.95-7.5497-42.846-15.943 33.76-6.8487 153.34-11.214 82.544-2.9932 187.4-4.4153 22.94-0.60726 167.71-1.1869 339.7-0.0137 599.04 9.1802 155.62 5.6593 234.43 12.719 18.72 1.0911 55.092 7.1971 11.21 2.4803 12.883 5.0689"/> </g> <g fill="#ffb600"> <path d="m1039.1 962.88-286.3-292.47-292.48 289.57z"/> <path d="m1039.1 962.88-286.3-292.47-246.7 289.8z"/> </g> <g fill="#aa5507"> <path d="m1039.1 962.88-286.3-292.47-47.234 290.8z"/> </g> <g fill="#ffd400"> <path d="m862.48 962-357.9-361.49-361.49 357.9z"/> </g> <g fill="#ffb600"> <path d="m862.48 962-357.9-361.5-302.64 358.19z"/> </g> <g fill="#e58b15"> <path d="m862.48 962-357.9-361.49-54.117 359.44z"/> </g> <g fill="#c28f4d" fill-opacity=".99608"> <path d="m163.43 1031.3 44.211-21.257q132.9-66.125 263.41-111.09 43.417-14.204 86.304-23.705l42.722-8.0315 42.391-5.0922 43.744-1.8618 41.483 1.6969 41.123 4.8969 40.795 7.8062q40.631 9.2607 80.739 23.176 100.4 33.625 277.08 129.99l-1004 3.4692"/> </g> <g fill="#9c6c2e"> <path d="m349.83 1042.1 33.705-21.564q101.11-67.056 202.25-112.86 33.713-14.482 67.431-24.243l33.72-8.285 33.723-5.3342 37.231-2.1068 33.438 1.6771 33.442 4.8398 33.445 7.7147q33.446 9.1524 66.898 22.905 83.628 33.231 234.2 128.47l-809.48 8.7929"/> </g> <g fill="#bb823b"> <path d="m-211.3 1032.5 41.223-19.47q143.68-85.184 223.19-114.91 31.814-12.301 63.557-20.487l31.721-6.9004 31.677-4.3289q40.831-2.3869 44.852-1.2267l32.653 3.0228 32.599 6.158 32.55 9.0082q32.526 10.433 64.973 25.427 81.138 36.344 226.58 136.88l-825.58-13.172"/> </g> <g fill="#637079"> <path d="m188.37 656.9v3.6e-4c-0.05176 0.6199-0.54665 1.1101-1.1669 1.1558l0.00185-1e-4 -0.0121 1e-3 -0.01218 8e-4 -0.00194 1e-4c-18.656 1.3762-37.461 2.766-51.541 1.5912-4.293-0.35814-8.1858-0.95704-11.524-1.8816-14.551-4.0309-18.105-14.123-21.479-23.618-0.23384-0.65805 0.10999-1.3811 0.76805-1.615 0.65802-0.2337 1.381 0.1102 1.6148 0.768 3.3699 9.4821 6.5617 18.369 19.772 22.028 3.1353 0.86836 6.8597 1.4486 11.059 1.7989 13.837 1.1547 32.413-0.21136 51.144-1.5931l-0.00193 2e-4 0.01215-8.5e-4 0.0121-9.5e-4 -1.1651 1.1557v-4e-4c0.05814-0.6959 0.66936-1.2129 1.3652-1.155 0.69602 0.05796 1.213 0.66916 1.1549 1.3653z"/> </g> <g fill="#fff" fill-opacity=".99608"> <path d="m255.2 635.86 0.73398 0.38436q3.5292 1.9084 14.213 6.7178l-3.9486 12.888-22.649-6.6273-7.0631-12.672 18.713-0.69066"/> </g> <g fill="#8b6c42"> <path d="m201.99 783.03-1.3207 2.9063q-9.2856 20.322-17.736 26.789-10.618 8.9482-27.152 14.929-5.9648 2.3605-20.981 7.3187l-19.45-16.271 86.639-35.672"/> </g> <g fill="#f3742e"> <path d="m254.55 514.65c-0.17554 35.108 28.143 63.712 63.252 63.888 35.108 0.17554 63.712-28.144 63.887-63.252 0.17554-35.108-28.144-63.712-63.251-63.887-35.109-0.17563-63.712 28.144-63.888 63.252"/> </g> <g fill="#8b6c42"> <path d="m212 624.27c-3.3524 1.1289-3.5961 5.3306-3.684 6.6014-0.10745 1.6062 2.7872 0.02644 6.7569-1.5844 3.3742-1.3702 7.5288-2.7583 11.282-2.228-1.7948-2.3463-9.8697-4.3016-14.354-2.7889"/> </g> <g fill="#64461d"> <path d="m215.07 629.29c-3.9696 1.6108-6.8631 3.1906-6.7556 1.5844 0.08795-1.2708 0.33167-5.4715 3.6828-6.6014 4.486-1.5126 12.559 0.4426 14.356 2.7889-3.7528-0.53025-7.9074 0.8594-11.283 2.228m37.778-4.8097c0.21856-0.7359 0.65939-1.3823 1.231-1.792 1.1531-0.83646 2.4118-0.8302 3.3787-0.6189 1.9971 0.40854 3.4576 1.5461 4.6326 2.8884-1.7612-0.288-3.4201-0.69477-4.8161-0.586-0.68799 0.0442-1.2612 0.2627-1.4348 0.5105-0.19726 0.2242-0.13397 0.40026-0.11142 0.4282l0.00247 0.0076 0.2081 0.1129c0.26229 0.1108 0.59754 0.20545 0.95926 0.2981 0.72678 0.1885 1.5334 0.31573 2.3398 0.4893 1.623 0.3023 3.2973 0.6162 5.0082 1.1641-1.6667 0.68826-3.3809 1.0255-5.1342 1.1524-0.88178 0.0798-1.7656 0.0754-2.7056-0.0311-0.46856-0.054-0.95587-0.1556-1.4959-0.3232-0.29474-0.1299-0.56967-0.2103-0.91165-0.46707-0.35202-0.24078-0.62714-0.55903-0.84528-0.91973-0.4013-0.7311-0.48254-1.5628-0.30526-2.3135m15.327 26.868c11.218-1.8547 15.22-3.7822 10.01-12.743-2.4571-4.2217-4.4316-5.353-4.4316-5.353s-4.9327-4.4833-6.1563-7.4617c-1.2235-2.9782-8.852-12.675-13.56-12.698l-4.7048-0.0225c0-0.00105-23.268-3.0885-26.974-5.3364-3.7028-2.2478-27.722-3.6078-35.718 10.469-15.615 2.1524-18.568-1.578-18.831 1.3919-0.26378 2.9723 5.62 15.379 10.062 18.873l-10.485 15.924 5.004 39.779c0.68546 11.52 7.9926 41.28-11.905 43.039-19.901 1.7558-32.76-26.916-37.908-37.715l-5.1488-10.802s-49.017-4.7035-57.832-25.554c-8.8114-20.849-39.611-3.1717-43.132 7.2146-3.5208 10.385-69.782 60.584-69.782 60.584s-21.833 14.412-28.546 38.28c-1.5608 1.1124-3.1146 2.3243-4.5936 3.6669-2.3147 2.0092-4.4935 4.2566-6.6652 6.5864-4.3058 4.6834-8.3849 9.8076-12.608 14.586-4.2206 4.7554-8.6746 9.175-13.638 11.801-2.4771 1.3055-5.0782 2.0128-7.6341 2.2325-1.0102 0.11697-2.0045 0.0942-2.9785-0.0022-0.28304-18.569-20.556-28.595-20.556-28.595 5.4909 7.2243 1.5066 9.9845 1.5066 9.9845s-10.601-14.463-16.185-14.617c1.2458 3.2941 0.29224 7.4232 0.29224 7.4232l-15.141-6.8488 2.8287 5.8405s-13.291 2.3789-15.873 12.516c20.224-19.712 40.883 12.779 58.811 15.973 2.1483 0.8506 4.572 1.675 7.2847 1.7715 3.0304 0.18864 6.3342-0.22854 9.4804-1.3495 6.3079-2.264 11.899-6.5095 16.984-10.806 5.0936-4.3349 9.8421-8.8072 14.411-12.535 1.0314-0.82965 2.0436-1.6229 3.0457-2.3826 1.2126 11.698 4.0863 39.698 5.4503 55.584 1.7574 20.443 25.046 68.735 23.279 74.669-1.7622 5.937-0.82727 17.337 2.1152 22.799 0 0 1.5764 31.724-2.7245 50.27-0.44974 1.9327-3.0242 10.389-3.0242 10.389s-14.248 25.687-13.268 28.171c0.97578 2.4837 6.6552 6.2253 6.6552 6.2253s0.01877 0.0139 1.1134 0.8743c2.0162-4.94 6.4219-9.9811 7.861-12.407l0.49918-0.4967 0.6135 1.2554c-2.8606 4.8263-5.1268 9.97-6.5441 13.545 2.3072 1.7455 5.6332 3.9196 9.0553 3.7331 0.7493 0.7567 6.093-1.042 8.6109-1.9471-0.40176-3.3943-0.92978-9.1679-2.2789-14.45l0.68853-0.66022 1.0732 0.36367c1.6832 6.5906 2.9162 10.198 3.3053 13.089 2.3859-1.928 6.9516-5.7762 8.226-7.9375 1.7499-2.9645-0.64864-12.101-5.0713-26.033-5.0998-16.06 2.0038-53.493 2.0038-53.493s1.9134-11.041 3.3603-13.51c1.4406-2.4683 3.1895-8.7497 0.046846-19.915 0 0-1.5242-37.674 3.0828-65.379 17.046 18.37 21.03 60.487 20.053 65.867-1.1455 6.3111-3.6821 17.743-1.4775 22.655 3.2018 7.135 9.7797 26.059 11.233 32.38 2.8191 12.253 7.9797 39.053 6.7989 52.424-0.0055467 1.1154 5.1474 10.801 9.2298 11.565 2.0236 0.3773 6.005 0.9667 9.8242 1.5566-1.2985-3.0667-0.99669-6.6071-1.1182-7.1834l1.1906-0.2483c0.48257 2.3073 2.2295 5.727 3.4791 7.9926 2.4372 0.397 4.4748 0.7619 5.3724 1.0227 2.4519 0.7149 6.5779-4.6992 7.6643-7.4891-1.471-1.7386-3.7598-4.1742-5.8529-6.2557l0.83284-0.83557c3.2652 3.2476 6.5246 4.1742 7.7328 5.6992 0.68694-0.3515 1.6045-1.0244 2.8679-2.2739 5.2287-5.1753-14.808-10.663-21.447-20.544-5.0157-7.4632-13.516-45.766-14.961-54.319-1.4435-8.5534 3.7945-15.587 1.5931-21.169-2.2025-5.5844-5.8489-19.35-3.2131-26.769 2.3146-6.5038 8.7462-37.542 11.575-50.096 11.364 4.4398 23.544 7.7788 35.079 7.604 0 0 12.084 35.356 16.862 46.154 3.092 6.9972-0.07807 15.604-0.84705 20.803 0 0 0.29883 6.1257 3.2258 15.428 2.9245 9.3051-0.85464 67.623-1.6461 77.281-0.79131 9.6534-17.409 26.291-16.119 28.526 1.0284 1.7846 7.832 3.9457 10.549 4.7502l5.1345-7.4787 1.7201-0.7876 0.62944 0.828-5.2174 9.4864c0.64783 0.9612 1.4405 2.0919 1.9979 2.751 0 0 8.3531 1.342 15.29-4.01 0.10621 0.3979 1.014 0.6362 2.2706 0.7785-0.13539-1.8378-1.7256-6.1629-4.6986-11.034l1.5118-0.5896c1.7608 2.8879 6.0773 7.8509 6.0765 11.791 3.1972 0.0635 6.6896-0.144 6.6896-0.144l0.18639-0.556c0.18997-0.5562 0.06221-12.446 0.06221-12.446l-8.8337-16.394c-8.836-16.392 4.4854-79.858 4.4854-79.858s4.5306-14.468 0.16349-32.694c0 0-2.2782-64.658-0.03614-67.249 0.71844-0.82866 6.4252-4.0728 14.621-8.1932 2.7755 22.782 5.1707 65.019 0.77475 74.656-4.5077 9.8849-5.5775 25.239-4.6363 35.644l0.93998 10.41s0.68364 61.928-7.8118 76.25c9.8442 12.435 37.103 10.593 38.593 9.6083 0.58675-1.1641 0.49485-3.1809 0.31998-4.6504-3.0467-2.1995-7.4163-5.138-10.31-6.1385l0.19886-1.2752c3.9524 1.3655 10.777 4.1667 13.719 6.3779 1.6416 0.0838 3.5161-0.142 5.0226-1.2081 3.48-2.4579-0.03625-9.0881-3.9096-10.916-21.249-10.024-16.812-21.697-18.5-23.872-10.048-12.931 3.0965-65.875 3.0965-65.875 5.5526-9.6491 4.6163-20.794 1.465-25.754 7.1716-47.026 23.812-47.588 29.517-86.925-5.0985-0.6906-14.789 0.4461-24.207 2.4406 13.758-5.8252 28.255-10.976 38.175-12.149 10.138-1.1926 29.649-25.244 35.467-34.001 8.3585-12.593 18.41-41.151 17.002-57.133-1.405-15.982-7.5766-44.994-2.7352-47.2 4.8402-2.2037 23.131-19.204 23.131-19.204 4.4874 0.0224 14.882 4.9539 16.869 5.9133 2.8824 1.3898 5.2724-3.9165 5.6808-8.1541 0.1922-1.9805-2.4594-3.231-2.4594-3.231l0.27048-0.0465c-5.5973-2.2834-14.226-0.3378-19.314-5.7458-3.8981-4.1458 11.36 1.9206 20.245 5.5946"/> </g> <g fill="#8b6c42"> <path d="m256.42 621.89c-0.75623-0.00376-1.5869 0.18106-2.3692 0.74856l-0.00626 0.00538h-9.5e-4c-0.57873 0.41736-1.0233 1.072-1.2439 1.815l-7.3e-4 0.0027c-0.18015 0.76284-0.09775 1.6084 0.31048 2.3523l0.00113 2e-3c0.22134 0.3659 0.50128 0.69016 0.86102 0.93625h-3e-4c0.27347 0.20471 0.50527 0.29965 0.73279 0.39275h-7e-5c0.05961 0.0246 0.12839 0.0529 0.18799 0.07924l0.00577 0.00219c0.54117 0.16797 1.0351 0.27094 1.5056 0.32497h1.8e-4c0.49236 0.0561 0.9751 0.08433 1.4443 0.08665 0.42724 0.00215 0.85042-0.01678 1.2707-0.05511h4.9e-4c1.7575-0.1272 3.4782-0.46554 5.1509-1.1562l-0.00408-0.10168c-1.7144-0.54902-3.3911-0.86327-5.0134-1.1654-0.30593-0.06606-0.6097-0.12456-0.91076-0.18286-0.29004-0.056-0.58139-0.1127-0.85882-0.1724v1e-4c-0.19152-0.04126-0.38605-0.0864-0.56797-0.13385h-1.5e-4c-0.3562-0.09085-0.69165-0.1861-0.94623-0.29295h-7.6e-4l-0.19272-0.1046-8.9e-4 -0.0017h-5e-5c-0.0087-0.01274-0.06769-0.15807 0.1094-0.3591l0.00379-0.00496c0.15776-0.22554 0.70696-0.44348 1.3939-0.48764h6.1e-4c0.1676-0.01303 0.34066-0.0186 0.51617-0.01767 0.94074 0.00464 1.995 0.19507 3.1048 0.39617 0.40069 0.0727 0.7688 0.13966 1.1822 0.207l0.0495-0.089c-1.1798-1.3477-2.6493-2.4937-4.6617-2.9054-0.32375-0.07074-0.67832-0.1186-1.0529-0.1207z"/> </g> <g fill="#ffb298" fill-opacity=".99608"> <path d="m97.647 624.91 15.227 4.3383-1.8908 11.725q-0.31047 1.5214-1.1115 2.5824-0.80098 1.061-2.4848 1.2942-1.0187 0.1293-2.5637-0.15566-1.1547-0.21668-2.524-0.6344-4.792-1.4621-14.895-6.1727l10.242-12.977"/> </g> <g fill="#fff" fill-opacity=".99608"> <path d="m344.88 551.53v1.5e-4 1.8e-4 -1.8e-4 -1.5e-4 1.5e-4 1.8e-4q0-1.8e-4 0-3.3e-4"/> </g> <g fill="#9a958e"> <path d="m14.091 662.88-0.19585-2.3474q-0.6778-10.029-2.1982-14.954-1.429-3.1142-2.9881-0.76655-6.2688 11.568-11.374 35.957-8.9387 39.523-0.72943 59.907 4.4483 13.475 23.209 27.873 21.656 14.76 39.136 17.291 15.368 3.0954 29.968-3.3627 10.468-4.6808 20.555-20.243 4.5928-7.3977 8.2014-15.997 2.4094-4.1122 8.6434-26.624 6.3348-29.124 4.6621-42.823-0.84118-9.0143-3.3441-13.797-3.9126-7.0254-8.7094-7.2033-3.1961-0.3047-5.9633 1.8479l-8.0276 8.2422q-1.5733 1.4478-3.5549 2.6371-3.8084 2.4221-10.516 2.8456-9.5833 1.0836-40.417-5.6578l-36.359-2.8259"/> </g> <g fill-opacity=".99608"> <path d="m55.822 539.13-0.1805-0.2754q-1.8954-2.9119-5.8335-4.333-3.7965-1.6088-8.2898-1.2103-8.5419 1.4093-12.207 8.9429-3.108 6.1372-1.6251 12.57 0.74156 2.7224 2.6721 5.3934 2.2194 3.1159 7.1107 7.9481l0.96224 4.4754 17.391-33.511z"/> </g> <g fill="#ffb298"> <path d="m38.333 575.9-6e-6 0.00214-1.54e-4 -0.0015-0.486-5.8599-0.6055-2.1285c1.5646-0.43719 2.7242-1.0924 3.4236-2.0086 0.65534-0.85846 1.0376-2.012 1.1105-3.424 0.062203-1.2033-0.046133-2.055-0.18766-2.5648-0.091813-0.33066-0.15954-0.6657-0.27899-0.98233-0.7647-2.0272-1.1462-3.0974-1.1132-3.2255-0.15826-0.52777-0.24231-1.227 0.022164-2.0229 0.60735-1.8286 1.5877-2.5492 2.6943-2.3664 0.29154 0.04809 0.69933 0.28474 1.2729 0.7489 0.19498 0.15759 0.93604 1.0444 2.226 2.6916 0.3143 0.40155 0.57403 0.51318 0.63968 0.34095 0.12573-0.3293 0.11351-0.6979 0.07489-1.0786-0.2802-2.7652-0.43949-4.6495-0.46061-5.6502-0.038674-1.8365 0.059257-2.8996 0.089484-3.2192 0.17416-1.8447 0.84444-3.642 2.5051-5.0139 2.4412-2.0162 4.6571-2.405 6.3455-1.5526 1.9882 3.02 3.0901 5.064 3.4355 6.0924 0.38286 1.1402 0.37191 2.3442-0.16051 3.6578 3.2196 2.9746 4.8201 4.897 5.0938 5.6828 0.33838 0.97145-0.35324 1.6596-2.3562 2.1784 0.68649 1.3751 0.98222 2.2709 0.98603 2.6901 0.004258 0.46785-0.27911 0.8968-0.94953 1.291 0.54528-0.03558 0.84769 0.2829 0.86516 0.95687 0.015647 0.59654-0.15426 1.6262-0.46792 3.0878 0.50606 1.4995 0.76017 2.6293 0.65768 3.378-0.098993 0.72363-0.35043 1.1686-0.65106 1.3509-0.39899 0.4689-1.6079 0.96905-3.6268 1.5012l-3.7193-0.34118-2.375 13.146-14.004-7.3564-6e-6 0.00214z"/> </g> <g fill-opacity=".99608"> <path d="m52.78 550.03 0.094032-0.1905q0.59597-1.269 1.1837-1.8213 0.13139-0.12144 0.27431-0.22166 0.065805-0.06 0.4488-0.26159 0.38796-0.19295 1.1501-0.42139-0.97485 0.72434-1.5039 1.2223-0.52152 0.47375-1.6471 1.6942z"/> <path d="m55.409 552.29 9.2e-5 5e-4h4.6e-5l-1.38e-4 -5e-4z"/> </g> <g fill="#fff" fill-opacity=".99608"> <path d="m54.316 550.69-1.3e-4 1.4e-4 1.1955-2.1897q0.45892 0.17256 0.64097 0.37356 0.19048 0.1812 0.47727 0.7736l-2.3136 1.0424z"/> </g> <g fill-opacity=".99608"> <path d="m55.491 548.49 0.039429 0.99085 1.0348 0.16424q-0.095598-0.3523-0.17047-0.5199-0.077842-0.16354-0.1001-0.18814-0.037774-0.057-0.08248-0.1055-0.044626-0.0475-0.096582-0.08636-0.022263-0.02414-0.16844-0.1009-0.14867-0.07318-0.45612-0.15429z"/> <path d="m45.541 528.77 4.36e-4 4e-4 -4.36e-4 -4e-4 4.36e-4 4e-4z"/> </g> <g> <path d="m31.704 640.4 3.1e-5 0.00216 1.106-2.464-0.92765-2.9903-2.2302-0.19844-11.014 4.9942c0.84744 9.4833-3.953 30.609 1.2494 35.17 2.6567 2.3286 5.0131 3.593 6.7626 4.2511 1.091 0.41066 2.177 0.90336 3.3245 1.3158l10.401 3.5201c2.2144 0.80257 4.1574 1.7664 5.9138 2.7428 2.7257 1.5158 32.963 56.069 21.67 12.265l7.7853 16.193c-2.6723-2.5797 9.2742-19.661 6.1082-30.781-4.3229-15.183-23.872-25.269-28.103-27.555l-5.3919-18.039-10.668-3.4544-11.311 3.1851 2.7502 2.0607 3.5659-2.7682-1.0096-0.1327z"/> </g> <g fill-opacity=".99608"> <path d="m81.503 765.25 0.53288 0.4408q3.7362 3.0788 6.0557 3.699 1.301 0.43487 2.6792 0.60807 0.78582 0.1009 1.6123 0.1566 5.4009 0.2477 5.597 0.36015 1.8644 0.25485 2.679 0.85115 1.1332 0.5796 1.0258 2.8144-0.33592 2.1039-2.2894 3.8979-2.133 2.0751-8.0821 2.7204-0.52289 0.07691-3.3238 0.27124l-19.084 1.2268q-2.3297 0.41316-3.5046 0.45936-2.5897 0.06629-3.5065-0.86106-1.2595-0.99-1.4589-4.0864-0.27917-1.7604 0.58737-9.6614l6.9365 4.1799 13.544-7.0768z"/> </g> <g fill="#fff" fill-opacity=".99608"> <path d="m51.954 533.25-5.9588-7.1189-22.74 14.417 2.7193 8.7706-6.9856 7.1774q-0.96448 1.3632-0.85235 1.5165-0.089058 0.4287 0.19786 0.6937 0.58585 0.7604 5.176-0.269 4.6058-1.0745 11.059-3.8924 8.7153-3.8771 16.9-10.25 10.149-8.0385 11.061-11.393 0.60512-2.7333-10.577 0.3479"/> </g> <g> <path d="m84.227 767.41-1.6943-41.144-1.6941-41.143q-11.831 5.2939-23.661 10.588l3.4174 45.706q0.02444 17.073 0.04857 34.146l23.584-8.1536"/> </g> <g fill="#fff" fill-opacity=".99608"> <path d="m37.202 571.41 16.57 9.432q-0.57689 3.1551-1.1537 6.3103-8.8895-3.4615-17.779-6.923l2.3632-8.8193"/> <path d="m34.985 579.35-5.3e-5 0.0024q-7.6872 5.7444-10.951 10.334-4.1014 5.2512-5.5663 14.156-0.86144 6.1214-0.8196 13.17-0.03405 3.9767 0.45886 19.792 0.037308 2.8811-0.070595 5.2423 0.004891 1.4446-0.55854 6.0851-0.29858 2.2404-1.5371 8.0752-0.38614 2.7212-0.30539 3.2772 0.06047 4.9859 2.6451 12.73l40.398-15.486q-2.5741-0.80433-4.4623-3.1667-1.3393-2.4996-1.3731-3.5302-0.3096-1.5135-0.36493-3.6039-0.065208-4.2783 0.88298-10.884l3.6657-24.36q0.8523-6.6869 0.68827-11.362 0.088951-7.6752-4.6446-15.754l-18.085-4.718"/> <path d="m20.495 637.16h1.45e-4v1e-4l-1.45e-4 -1e-4"/> <path d="m45.473 596.2 54.955 29.432q-4.0132 7.4941-8.0264 14.988-27.478-14.714-54.957-29.429 4.0142-7.4958 8.0285-14.992"/> </g> <g fill="#3c464f" fill-opacity=".99608"> <path d="m156.21 658.74 6e-5 1.9e-4v2.5e-4l-6e-5 -4.4e-4"/> </g> <g fill="#fff" fill-opacity=".99608"> <path d="m42.549 600.66 27.477 14.716 27.477 14.716q-4.0133 7.4938-8.0265 14.988-27.478-14.714-54.957-29.428 4.0143-7.4962 8.0285-14.992"/> </g> <g fill="#ffb298" fill-opacity=".99608"> <path d="m94.723 629.37 15.227 4.3385-1.8908 11.725q-0.31053 1.5213-1.1115 2.5824-0.80107 1.0612-2.4848 1.2941-1.0187 0.12958-2.5636-0.15556-1.1548-0.21645-2.524-0.63436-4.792-1.4622-14.895-6.1728l10.242-12.977"/> </g> <g fill="#637079"> <path d="m240.06 611.88 2.7364 50.178c0.03803 0.69735-0.49646 1.2934-1.1938 1.3312-0.6972 0.0382-1.2934-0.4962-1.3314-1.1935l-2.7365-50.178c-0.03799-0.69727 0.49665-1.2932 1.1938-1.3311 0.69723-0.0384 1.2933 0.4961 1.3313 1.1933z"/> <path d="m242.08 639.82c0.14066 0.5785-0.14126 1.1767-0.67685 1.4364v-1.4e-4l-0.18066 0.0878h-2.1e-4c-29.734 14.42-59.733 28.969-82.559 32.377-3.0626 0.45704-5.9972 0.7145-8.8064 0.79975-18.308 0.55481-31.155-6.219-38.719-12.639-8.8063-7.4746-10.463-14.492-12.059-21.243-0.1606-0.67973 0.26017-1.3608 0.93988-1.5214 0.67955-0.1606 1.3607 0.26014 1.5213 0.9398 1.5628 6.6135 3.0639 12.962 11.234 19.897 7.1526 6.0707 19.405 12.572 37.006 12.039 2.7078-0.0819 5.5435-0.3304 8.5095-0.7731 22.351-3.3374 51.943-17.657 81.829-32.151h-9e-5l0.18075-0.08753-0.67688 1.4364-5e-5 -3.3e-4c-0.16502-0.67841 0.25149-1.3623 0.93002-1.5272 0.67852-0.16498 1.3624 0.2514 1.5274 0.92995z"/> </g> <g fill="#9f7641" fill-opacity=".64706"> <path d="m591.25 866.85-11.395 6.7432q-35.851 20.341-56.704 39.677-6.3957 6.4081-9.4587 12.593l-2.0216 6.1149q-1.0842 6.0521 2.4141 11.797 3.6371 5.7356 11.857 11.164l9.1569 5.3656q10.198 5.2958 23.73 10.368 32.994 12.737 118.05 33.943l-141.36 1.5627q-56.008-34.685-125.21-70.961 33.773-25.979 65.23-37.217 28.857-11.551 115.71-31.151"/> </g> <g fill="#e58b15" fill-opacity=".99608"> <path d="m661.14 1156.9-4.3e-4 1e-3 -3.1e-4 0.0011 7.4e-4 -0.0021"/> </g> </g> </svg>